<?xml version="1.0" encoding="UTF-8"?>
<svg id="Layer_1" xmlns="http://www.w3.org/2000/svg" version="1.1" viewBox="0 0 215.09 51.93">
  <!-- Generator: Adobe Illustrator 29.5.1, SVG Export Plug-In . SVG Version: 2.1.0 Build 141)  -->
  <defs>
    <style>
      .st0 {
        fill: #048c4b;
      }

      .st1 {
        fill: #fff;
      }

      .st2 {
        fill: #22d081;
      }
    </style>
  </defs>
  <g>
    <path class="st0" d="M36.35,37.73l10.59,9.36c1.01.58,2.32.23,2.9-.78l.15-7.77-14.36-2.44c.03,1.09.75,1.63.72,1.63Z"/>
    <path class="st2" d="M47.24,7.35H5.53c-1.51,0-2.74,1.1-2.74,2.44v28.81c0,1.3,1.17,2.37,2.62,2.43.04,0,.08.01.12.01h41.72c1.51,0,2.74-1.1,2.74-2.44V9.78c0-1.34-1.23-2.44-2.74-2.44Z"/>
  </g>
  <g>
    <path d="M89.47,44.88c-6.64-.02-12.08-1.67-16.3-4.97-4.27-3.33-6.4-8.86-6.4-16.6s2.13-13.34,6.4-16.64c4.27-3.3,9.75-4.95,16.47-4.95s12.21,1.65,16.48,4.95c4.27,3.3,6.41,8.85,6.41,16.64s-1.86,12.86-5.59,15.85c-1.96,1.6-4.73,2.4-8.31,2.4-.5,0-1.02-.02-1.54-.05l-.11.57,15.5,1.13v6.83l-23-1.67v-3.48ZM89.63,37.94c4.03,0,7.35-1.02,9.95-3.06,2.6-2.04,3.9-5.9,3.9-11.57s-1.3-9.59-3.9-11.61c-2.6-2.02-5.92-3.02-9.95-3.02s-7.35,1.01-9.95,3.02c-2.6,2.02-3.9,5.89-3.9,11.61s1.3,9.52,3.9,11.57c2.6,2.04,5.92,3.06,9.95,3.06Z"/>
    <path d="M126.34,2.82l.03,6.75h-8.94l-.03-6.75h8.94ZM117.43,12.78h8.94v31.8h-8.94V12.78Z"/>
    <path d="M162.97,1.71h8.94v42.87h-8.94v-3.1c0-.16.04-.29.13-.38l2-2.05-.13-.11c-.77.88-1.86,1.8-3.27,2.75-3.08,2.09-7.37,3.13-12.88,3.13h-.27c-5.58-.04-9.76-1.37-12.54-3.99s-4.17-6.69-4.17-12.2,1.39-9.53,4.17-12.12,6.96-3.91,12.54-3.97h.4c5.43,0,9.68,1.03,12.74,3.1,1.4.97,2.49,1.9,3.27,2.78l.19-.16-2.08-2.05c-.07-.11-.11-.22-.11-.35V1.71ZM140.95,28.68c0,3.92.81,6.6,2.42,8.04,1.61,1.44,4.34,2.16,8.19,2.16s6.51-.72,8.48-2.16c1.85-1.35,2.83-3.11,2.94-5.29v-5.45c-.11-2.23-1.09-4.02-2.94-5.37-1.96-1.42-4.79-2.13-8.48-2.13s-6.58.72-8.19,2.17c-1.61,1.45-2.42,4.13-2.42,8.03Z"/>
    <path d="M184.35,29.06c0,3.76.6,6.34,1.81,7.75,1.21,1.4,3.53,2.11,6.96,2.11,3.65,0,6.44-.89,8.37-2.67,1.58-1.48,2.51-3.46,2.78-5.97V12.81h8.94v31.77h-8.72v-3.73c0-.14.03-.27.08-.38l1.81-2.54-.16-.14c-.56.76-1.21,1.53-1.94,2.32-2.93,3.17-7.65,4.75-14.15,4.75-5.42,0-9.22-1.27-11.42-3.81-2.2-2.54-3.29-6.34-3.29-11.42V12.78h8.94v16.28Z"/>
  </g>
  <circle class="st1" cx="26.38" cy="24.19" r="8.97"/>
</svg>